<?xml version="1.0" encoding="UTF-8"?>
<svg width="40px" height="40px" viewBox="0 0 40 40" version="1.1" xmlns="http://www.w3.org/2000/svg" xmlns:xlink="http://www.w3.org/1999/xlink">
    <!-- Generator: Sketch 40.3 (33839) - http://www.bohemiancoding.com/sketch -->
    <title>back copy</title>
    <desc>Created with Sketch.</desc>
    <defs></defs>
    <g id="Page-1" stroke="none" stroke-width="1" fill="none" fill-rule="evenodd">
        <g id="Desktop-HD-Copy-17" transform="translate(-1296.000000, -2214.000000)">
            <rect id="Rectangle-9-Copy" fill="#F2F2F2" x="0" y="1738" width="1440" height="960"></rect>
            <g id="back-copy" transform="translate(1316.000000, 2234.000000) scale(-1, 1) translate(-1316.000000, -2234.000000) translate(1296.000000, 2214.000000)" fill="#858585">
                <path d="M20,39.8787879 C30.969697,39.8787879 39.8787879,30.969697 39.8787879,20 C39.8787879,9.03030303 30.969697,0.121212121 20,0.121212121 C9.03030303,0.121212121 0.121212121,9.03030303 0.121212121,20 C0.121212121,30.969697 9.03030303,39.8787879 20,39.8787879 L20,39.8787879 Z M20,2.24242424 C29.7575758,2.24242424 37.7575758,10.1818182 37.7575758,20 C37.7575758,29.7575758 29.8181818,37.7575758 20,37.7575758 C10.1818182,37.7575758 2.24242424,29.8181818 2.24242424,20 C2.24242424,10.2424242 10.2424242,2.24242424 20,2.24242424 L20,2.24242424 Z M14.9987778,20.7982164 C14.532716,20.3321546 14.532716,19.5997716 14.9987778,19.1337098 L20.8578412,13.2746464 C21.057582,13.0749056 21.3904834,12.941745 21.6568044,12.941745 C21.9231255,12.941745 22.2560268,13.0749056 22.4557676,13.2746464 C22.9218295,13.7407082 22.9218295,14.4730912 22.4557676,14.939153 L17.3956674,19.9992532 L22.4557676,25.0593534 C22.9218295,25.5254153 22.9218295,26.2577982 22.4557676,26.7238601 C21.9897058,27.1899219 21.2573228,27.1899219 20.791261,26.7238601 L14.9987778,20.7982164 L14.9987778,20.7982164 Z" id="Shape"></path>
            </g>
        </g>
    </g>
</svg>